<?xml version="1.0" standalone="no"?>
<!DOCTYPE svg PUBLIC "-//W3C//DTD SVG 20010904//EN"
 "http://www.w3.org/TR/2001/REC-SVG-20010904/DTD/svg10.dtd">
<svg version="1.0" xmlns="http://www.w3.org/2000/svg"
 width="200.000000pt" height="200.000000pt" viewBox="0 0 200.000000 200.000000"
 preserveAspectRatio="xMidYMid meet">
<metadata>
Created by potrace 1.11, written by Peter Selinger 2001-2013
</metadata>
<g transform="translate(0.000000,200.000000) scale(0.100000,-0.100000)"
fill="#000000" stroke="none">
<path d="M867 1623 c-4 -21 -9 -71 -13 -111 -6 -58 -11 -75 -27 -83 -15 -9
-18 -18 -14 -45 4 -21 2 -34 -5 -34 -20 0 -131 -124 -184 -205 -107 -165 -162
-299 -158 -386 4 -67 40 -153 81 -194 29 -29 165 -109 175 -104 2 1 21 -4 43
-10 22 -6 82 -14 133 -18 74 -5 92 -9 93 -22 0 -9 1 -36 1 -61 1 -110 -2 -130
-22 -147 -11 -10 -20 -25 -20 -33 0 -10 -19 -23 -49 -34 -59 -21 -68 -31 -86
-91 l-14 -45 278 0 c153 0 280 3 284 6 8 8 -19 73 -41 97 -21 24 -55 38 -107
46 -32 5 -41 11 -43 29 -2 12 -7 22 -12 22 -5 0 -8 30 -8 67 0 38 -3 92 -6
121 -7 46 -5 52 11 53 36 2 89 17 118 33 11 5 22 10 25 11 3 0 21 11 40 25 85
59 123 134 124 245 1 96 -6 142 -35 215 -63 166 -209 337 -344 406 -38 19 -73
43 -76 52 -3 9 -11 18 -18 18 -6 1 -17 2 -23 3 -7 1 -24 36 -37 79 -14 42 -32
90 -42 105 l-16 28 -6 -38z"/>
</g>
</svg>
